<?xml version="1.0" standalone="no"?>
<!DOCTYPE svg PUBLIC "-//W3C//DTD SVG 20010904//EN"
 "http://www.w3.org/TR/2001/REC-SVG-20010904/DTD/svg10.dtd">
<svg version="1.0" xmlns="http://www.w3.org/2000/svg"
 width="688.000000pt" height="689.000000pt" viewBox="0 0 688.000000 689.000000"
 preserveAspectRatio="xMidYMid meet">

<g transform="translate(0.000000,689.000000) scale(0.100000,-0.100000)"
fill="#000000" stroke="none">
<path d="M0 3445 l0 -3445 3440 0 3440 0 0 2404 c0 2396 0 2405 -20 2410 -11
3 -29 9 -40 12 -11 3 -20 1 -20 -5 0 -6 7 -11 15 -11 8 0 15 -5 15 -11 0 -6
-7 -8 -16 -5 -11 4 -14 1 -10 -12 7 -20 -29 -61 -42 -48 -4 4 2 15 13 24 19
16 25 55 12 69 -10 9 -96 -61 -89 -72 18 -29 9 -67 -22 -101 -27 -30 -34 -33
-39 -20 -4 10 -3 15 2 12 5 -4 7 3 4 15 -4 15 -8 17 -14 8 -4 -8 -11 -10 -14
-7 -12 12 5 28 29 28 27 0 46 18 39 35 -3 10 -17 5 -49 -18 -42 -30 -44 -30
-64 -12 -20 18 -20 18 8 35 16 10 38 30 50 45 12 15 22 24 22 19 0 -5 4 -4 8
2 4 6 50 46 102 90 52 43 100 85 107 94 10 11 12 233 13 963 l0 947 -3440 0
-3440 0 0 -3445z m2593 2209 c26 -4 45 -9 43 -13 -2 -3 10 -6 27 -6 18 0 43
-4 57 -8 20 -7 22 -6 10 3 -12 9 -7 10 20 5 19 -4 49 -11 65 -16 17 -4 74 -18
128 -30 53 -12 97 -26 97 -31 0 -4 11 -6 25 -2 15 4 25 2 25 -5 0 -6 6 -8 13
-6 23 8 232 -60 233 -75 0 -8 -23 -38 -51 -66 l-50 -52 -85 28 c-74 25 -248
64 -374 85 -76 13 -145 7 -181 -14 -25 -14 -32 -16 -28 -5 3 8 -8 2 -24 -13
-17 -16 -43 -35 -59 -43 -16 -8 -31 -17 -34 -20 -3 -3 -18 -14 -35 -24 -53
-34 -169 -135 -203 -176 -18 -22 -38 -37 -44 -34 -7 4 -8 2 -4 -4 3 -6 -8 -32
-26 -57 -29 -41 -33 -55 -37 -126 -2 -52 -7 -77 -14 -72 -6 4 -7 1 -2 -7 16
-26 -59 -42 -84 -17 -10 10 -11 9 -6 -5 9 -22 -17 -24 -38 -3 -17 16 -31 96
-22 124 3 10 -1 24 -10 31 -8 7 -15 18 -15 25 0 7 -13 27 -30 45 -16 18 -30
36 -30 41 0 5 -3 8 -7 7 -5 -1 -19 4 -33 12 -14 8 -38 21 -55 30 -16 9 -29 22
-27 29 1 7 -3 11 -10 9 -7 -3 -44 15 -83 39 -38 23 -74 43 -80 43 -5 0 -21 9
-35 20 -14 11 -33 20 -43 20 -11 0 -21 9 -24 20 -3 11 -10 17 -15 14 -5 -3
-22 0 -39 6 -24 10 -35 10 -65 -5 -19 -9 -42 -14 -49 -11 -9 3 -12 0 -9 -8 4
-9 -15 -24 -52 -42 -32 -16 -78 -43 -101 -61 -24 -18 -45 -33 -47 -33 -3 0
-13 8 -22 18 -16 15 -17 15 -12 0 4 -9 2 -19 -5 -22 -7 -3 -1 -3 13 0 24 6 24
5 -6 -22 -17 -16 -37 -46 -45 -66 -14 -41 -35 -53 -24 -15 4 15 4 18 -3 8 -13
-18 -32 -6 -32 20 0 31 52 107 193 280 74 92 80 94 168 65 138 -44 181 -67
149 -78 -6 -2 6 -4 27 -5 42 -1 137 -45 125 -58 -4 -5 -1 -5 5 -1 7 4 32 -4
55 -17 99 -56 119 -67 198 -117 61 -38 88 -50 106 -46 13 4 24 11 24 17 0 6 5
7 10 4 6 -3 10 2 10 11 0 38 232 303 373 425 62 55 71 59 116 59 26 0 69 -3
94 -6z m227 -234 c221 -40 430 -106 430 -136 0 -7 -10 -25 -22 -39 l-23 -26
-116 30 c-134 36 -332 71 -396 71 -63 0 -85 14 -73 46 12 31 12 34 0 34 -5 0
-23 -20 -40 -45 -17 -25 -57 -61 -88 -81 -31 -20 -119 -83 -194 -140 -76 -57
-138 -100 -138 -95 0 16 92 121 155 180 70 63 255 190 305 208 48 17 70 16
200 -7z m1028 -37 c-10 -2 -18 -14 -19 -26 0 -21 -1 -21 -8 -2 -9 21 3 35 29
34 11 -1 10 -3 -2 -6z m-323 -37 c9 4 15 -7 20 -36 4 -23 4 -44 1 -47 -3 -4
-6 7 -7 23 0 22 -2 25 -7 11 -7 -17 -9 -16 -30 3 -20 19 -24 20 -38 6 -8 -9
-13 -16 -9 -16 3 0 3 -5 0 -10 -4 -6 -11 -7 -17 -4 -5 4 7 23 28 46 22 21 40
34 42 29 2 -5 9 -8 17 -5z m-2016 -86 c233 -119 366 -219 347 -264 -2 -6 -5
-3 -5 7 -1 21 -23 22 -61 2 -36 -18 -58 -11 -149 50 -36 23 -126 75 -198 115
-73 39 -133 75 -133 80 0 14 54 70 68 70 7 0 66 -27 131 -60z m-211 28 c-7
-21 -263 -198 -267 -186 -5 16 57 68 164 138 94 61 109 68 103 48z m1467 -9
c77 -12 338 -64 396 -79 41 -11 64 -52 73 -132 6 -52 -8 -191 -26 -250 -10
-36 -54 -79 -107 -107 -19 -11 -21 -15 -10 -23 10 -6 7 -7 -10 -3 -19 6 -23 4
-18 -8 4 -11 0 -14 -16 -11 -12 2 -17 2 -10 -2 15 -7 -124 -80 -242 -127 -103
-41 -177 -49 -320 -35 -115 10 -178 25 -236 54 l-46 23 -26 128 c-15 70 -30
153 -33 183 -6 51 -4 59 21 88 30 36 286 229 376 284 66 40 70 41 234 17z
m665 -18 c0 -5 -6 -14 -14 -20 -12 -10 -13 -8 -9 8 5 21 23 30 23 12z m240 5
c0 -3 -4 -8 -10 -11 -5 -3 -10 -1 -10 4 0 6 5 11 10 11 6 0 10 -2 10 -4z
m-380 -54 c0 -4 -6 -14 -12 -20 -9 -9 -10 -15 -2 -20 6 -4 14 -15 17 -26 6
-14 4 -17 -8 -12 -13 5 -15 -1 -10 -32 4 -26 3 -31 -3 -17 -16 34 -25 118 -13
110 6 -3 11 1 11 9 0 9 5 16 10 16 6 0 10 -4 10 -8z m-1891 -53 c188 -100 330
-192 345 -224 28 -59 55 -405 34 -422 -32 -25 -187 -56 -305 -61 -118 -4 -124
-4 -176 22 -76 39 -185 123 -203 157 -8 16 -23 71 -34 122 -11 50 -28 132 -39
182 -24 107 -31 96 111 192 55 37 102 71 104 75 13 21 74 4 163 -43z m2466 41
c3 -6 -1 -7 -9 -4 -18 7 -21 14 -7 14 6 0 13 -4 16 -10z m-443 -75 c14 -92 17
-166 8 -160 -6 4 -10 10 -10 15 0 5 -5 21 -11 37 -7 15 -13 41 -15 57 -3 17
-9 33 -15 37 -7 4 -9 12 -5 18 4 6 1 9 -7 5 -11 -4 -13 1 -9 21 4 21 9 26 31
23 23 -3 27 -9 33 -53z m-122 -91 c0 -8 -4 -12 -10 -9 -5 3 -10 10 -10 16 0 5
5 9 10 9 6 0 10 -7 10 -16z m-2332 -6 c13 -13 16 -48 4 -48 -14 0 -32 23 -32
42 0 21 11 23 28 6z m2412 -43 c0 -14 -4 -25 -9 -25 -4 0 -6 11 -3 25 2 14 6
25 8 25 2 0 4 -11 4 -25z m1055 -9 c67 -31 83 -50 61 -74 -23 -27 -20 -35 20
-57 40 -21 87 -72 79 -85 -3 -5 -18 -3 -35 3 -40 15 -45 6 -21 -41 32 -63 40
-114 25 -152 -8 -18 -14 -41 -14 -51 0 -14 -7 -19 -26 -19 -23 0 -25 -3 -19
-22 14 -44 31 -153 27 -174 -3 -15 -9 -20 -22 -17 -27 7 -32 -12 -11 -38 14
-19 18 -36 14 -78 -5 -67 -15 -86 -52 -102 -31 -14 -51 -45 -51 -82 0 -12 -5
-39 -10 -59 -10 -34 -14 -37 -55 -44 -39 -5 -45 -9 -45 -31 0 -14 -11 -38 -25
-55 -14 -16 -25 -38 -25 -48 0 -22 -60 -117 -79 -125 -23 -9 -24 1 -10 72 9
44 14 138 14 263 0 211 -9 261 -62 341 -43 65 -119 79 -170 32 -44 -42 -115
-218 -169 -420 -6 -23 -24 -14 -24 11 0 18 -6 25 -22 28 -20 3 -25 12 -34 63
-10 60 -13 63 -47 50 -21 -9 -45 41 -73 153 -10 39 -22 72 -28 72 -5 0 -20 -9
-32 -21 l-22 -21 -17 25 c-9 14 -19 47 -24 75 -4 27 -17 66 -28 85 l-21 35 46
44 c26 23 70 63 97 87 28 25 116 109 197 187 167 162 206 184 256 147 62 -46
99 -36 45 12 -18 16 -23 24 -14 25 8 0 28 -12 43 -27 21 -20 31 -24 40 -15 8
8 5 16 -13 31 l-24 19 90 6 c50 4 99 8 110 10 62 10 114 4 160 -18z m-1127
-34 l-1 -37 -4 33 c-2 18 -8 30 -14 27 -5 -3 -6 1 -3 9 10 27 24 7 22 -32z
m112 11 c0 -7 -6 -12 -12 -10 -7 1 -12 -6 -12 -15 2 -25 -12 -23 -19 2 -3 13
0 20 9 20 8 0 14 10 14 23 0 18 2 19 10 7 5 -8 10 -21 10 -27z m-1570 17 c0
-5 -7 -7 -15 -4 -8 4 -15 8 -15 10 0 2 7 4 15 4 8 0 15 -4 15 -10z m-23 -42
c-3 -8 -6 -5 -6 6 -1 11 2 17 5 13 3 -3 4 -12 1 -19z m-836 -10 c11 -21 37
-132 42 -183 1 -11 -5 -21 -15 -23 -13 -3 -21 12 -37 65 -28 97 -35 163 -16
163 8 0 20 -10 26 -22z m2566 0 c-3 -8 -6 -5 -6 6 -1 11 2 17 5 13 3 -3 4 -12
1 -19z m-1700 -20 c-3 -8 -6 -5 -6 6 -1 11 2 17 5 13 3 -3 4 -12 1 -19z m1674
-31 c-8 -8 -11 -8 -11 1 0 7 -10 12 -22 13 -22 0 -22 1 -3 8 12 5 23 4 27 -3
5 -7 8 -3 9 9 1 18 2 18 6 1 3 -10 0 -23 -6 -29z m-221 13 c0 -5 -2 -10 -4
-10 -3 0 -8 5 -11 10 -3 6 -1 10 4 10 6 0 11 -4 11 -10z m-1440 -19 c0 -5 -6
-14 -14 -20 -12 -10 -13 -8 -9 8 5 21 23 30 23 12z m1351 -58 c-12 -20 -14
-14 -5 12 4 9 9 14 11 11 3 -2 0 -13 -6 -23z m-1341 13 c0 -2 -7 -7 -16 -10
-8 -3 -12 -2 -9 4 6 10 25 14 25 6z m233 -20 c11 -27 -22 -38 -128 -44 -91 -4
-105 -3 -105 11 0 18 24 27 100 37 93 12 127 11 133 -4z m4657 -16 c-6 -10
-14 -22 -20 -25 -5 -3 -7 -12 -4 -20 3 -8 -1 -21 -10 -30 -14 -14 -15 -12 -11
20 3 23 1 34 -5 30 -5 -3 -10 -1 -10 4 0 6 7 11 15 11 8 0 20 9 27 19 15 25
32 16 18 -9z m-3560 -20 c0 -5 -5 -10 -11 -10 -5 0 -7 5 -4 10 3 6 8 10 11 10
2 0 4 -4 4 -10z m-1077 -59 c4 -18 5 -37 0 -42 -11 -11 -127 -29 -185 -29 -43
0 -49 3 -63 30 -26 51 -10 65 72 62 37 -1 84 2 103 7 52 14 63 9 73 -28z
m4465 -86 c36 -40 38 -49 20 -87 -13 -27 -76 -68 -104 -68 -8 0 -17 -13 -20
-29 -6 -28 -64 -96 -64 -74 0 17 -90 112 -121 128 -15 8 -37 15 -48 15 -39 0
-30 18 37 71 36 30 74 62 84 72 10 9 18 14 18 10 0 -4 6 1 13 10 6 9 25 23 41
31 28 14 31 13 71 -14 23 -16 56 -45 73 -65z m-4754 50 c5 -22 4 -26 -4 -15
-5 8 -10 24 -10 34 0 26 6 18 14 -19z m-794 -10 c0 -8 -4 -15 -9 -15 -5 0 -11
7 -15 15 -3 9 0 15 9 15 8 0 15 -7 15 -15z m770 -105 c0 -5 -5 -10 -11 -10 -5
0 -7 5 -4 10 3 6 8 10 11 10 2 0 4 -4 4 -10z m545 -64 c44 -8 110 -18 147 -22
57 -5 65 -9 53 -20 -7 -8 -18 -14 -24 -14 -6 0 -11 -4 -11 -10 0 -5 -10 -10
-22 -10 -12 0 -18 -3 -15 -6 14 -15 -83 -69 -168 -93 -70 -21 -217 -44 -305
-48 -86 -5 -207 7 -335 32 -74 15 -123 32 -235 82 l-45 20 55 11 c184 34 242
42 252 36 7 -4 8 -3 4 4 -10 17 58 31 127 26 94 -8 328 14 346 31 8 8 76 1
176 -19z m3862 -22 c-3 -3 -12 -4 -19 -1 -8 3 -5 6 6 6 11 1 17 -2 13 -5z m56
-11 c-7 -2 -19 -2 -25 0 -7 3 -2 5 12 5 14 0 19 -2 13 -5z m-2892 -45 c10 -24
10 -33 1 -36 -7 -2 -10 -13 -6 -28 4 -16 2 -24 -6 -24 -9 0 -11 13 -8 45 3 25
1 45 -4 45 -5 0 -6 6 -2 13 4 7 3 9 -2 4 -5 -5 -9 -12 -9 -15 -1 -17 -18 -32
-38 -32 -20 1 -19 4 13 30 19 17 37 30 41 30 4 0 13 -14 20 -32z m2878 -5 c37
-22 40 -40 7 -53 -24 -9 -44 -30 -29 -30 4 0 23 9 41 20 17 11 32 15 32 10 0
-5 8 -6 18 -3 15 6 16 5 2 -12 -9 -11 -10 -16 -2 -11 6 4 12 2 12 -4 0 -6 -20
-19 -44 -30 -24 -10 -47 -23 -51 -29 -3 -6 -11 -9 -16 -6 -5 3 -7 0 -4 -7 5
-14 -55 -58 -78 -58 -7 0 -33 9 -56 21 -24 11 -45 18 -49 15 -3 -3 -1 -6 5 -6
5 0 16 -19 23 -41 13 -37 12 -43 -3 -54 -9 -7 -17 -20 -17 -29 0 -20 -19 -21
-27 0 -3 8 4 25 17 39 22 23 22 25 6 50 -9 14 -20 25 -24 25 -4 0 -27 -18 -52
-40 -24 -22 -48 -40 -52 -40 -4 0 -8 -5 -8 -11 0 -7 10 -5 25 5 28 18 45 21
45 6 0 -5 -8 -10 -17 -10 -10 0 -26 -7 -36 -15 -11 -7 -26 -11 -35 -8 -10 4
-13 2 -8 -5 4 -7 9 -22 11 -33 6 -28 15 -37 15 -15 0 30 34 58 63 51 14 -4 24
-12 23 -18 -2 -7 -1 -9 1 -4 6 10 33 9 33 -1 0 -12 -30 -37 -53 -45 -10 -4
-16 -11 -12 -16 3 -6 -7 -9 -22 -8 -25 2 -28 -1 -26 -25 1 -20 -2 -25 -13 -21
-8 3 -17 -3 -21 -15 -5 -12 -44 -51 -88 -89 -44 -37 -84 -73 -88 -80 -11 -18
-27 -16 -27 2 0 8 5 15 10 15 6 0 10 5 10 11 0 8 -5 8 -15 -1 -8 -7 -15 -21
-15 -31 0 -11 -15 -32 -32 -48 -31 -28 -33 -28 -40 -10 -10 26 -23 24 -37 -7
-8 -19 -17 -25 -31 -21 -17 4 -18 2 -9 -15 10 -19 11 -19 24 -1 7 10 17 14 21
10 11 -10 -63 -80 -76 -72 -5 3 -19 3 -31 0 -14 -5 -18 -12 -14 -26 8 -23 -1
-24 -23 -2 -12 12 -13 18 -4 21 6 2 12 11 12 20 0 11 -3 13 -8 6 -4 -6 -20
-16 -37 -21 -31 -11 -30 -12 22 -28 11 -4 13 -9 6 -16 -7 -7 -19 -6 -37 2 -21
10 -27 18 -23 36 2 12 0 20 -4 17 -5 -3 -9 -12 -9 -20 0 -17 -36 -19 -43 -1
-2 6 -1 21 3 32 10 24 245 249 353 337 44 34 123 101 177 148 54 47 131 112
171 145 41 33 76 63 77 68 2 4 9 7 15 7 7 0 26 14 44 30 18 17 36 30 41 30 5
0 15 7 22 15 16 19 22 19 59 -2z m-2911 -55 c3 -15 -2 -17 -29 -11 -23 4 -30
3 -25 -5 4 -7 21 -12 37 -12 27 0 30 -3 23 -22 -6 -21 -5 -21 15 4 11 14 21
34 21 44 0 10 16 -14 35 -54 35 -73 47 -82 85 -62 20 11 19 13 40 -70 18 -66
48 -119 75 -132 16 -7 27 -24 35 -56 6 -25 24 -61 41 -79 16 -19 29 -40 29
-47 0 -19 27 -40 34 -27 4 5 17 51 30 103 33 128 98 301 132 350 39 55 66 67
107 45 39 -22 69 -66 88 -132 22 -77 19 -397 -5 -493 -21 -84 -68 -160 -148
-243 -92 -95 -143 -131 -193 -137 -54 -6 -53 -7 -24 105 21 79 21 113 -1 113
-5 0 -10 -10 -11 -22 0 -35 -56 -173 -68 -171 -6 2 -8 -4 -5 -12 7 -17 -49
-101 -79 -117 -12 -6 -51 -34 -86 -61 -65 -49 -311 -175 -366 -186 -23 -5 -31
-13 -33 -33 -2 -14 -11 -28 -20 -31 -9 -3 -70 -24 -134 -46 -412 -142 -679
-140 -988 7 -206 98 -286 187 -335 369 -22 82 -19 121 7 95 15 -15 54 -16 64
-1 10 17 -35 47 -75 51 -33 3 -34 5 -65 93 -18 50 -45 118 -61 153 -25 56 -27
68 -17 95 6 18 8 52 5 76 l-6 44 33 -7 c36 -7 47 -13 38 -22 -4 -3 -17 0 -30
6 l-23 11 24 -19 c22 -18 23 -23 14 -61 -12 -45 -4 -92 15 -99 7 -2 12 7 12
25 1 114 30 141 106 97 27 -15 64 -40 82 -56 18 -15 61 -44 96 -64 71 -41 103
-86 113 -160 10 -76 -45 -126 -138 -126 -92 1 -146 45 -208 170 -29 58 -40 70
-53 56 -9 -8 61 -146 90 -178 93 -99 213 -111 303 -29 34 31 39 41 39 78 0 56
26 70 36 19 5 -28 1 -42 -20 -72 -14 -21 -26 -41 -26 -45 0 -11 81 -97 91 -97
19 0 8 33 -21 62 -32 32 -37 50 -17 65 13 11 14 11 97 17 33 2 69 12 90 25 32
19 42 36 23 36 -5 0 -14 4 -22 9 -11 7 -11 10 0 17 7 4 10 11 7 15 -4 3 -23
-9 -42 -27 -20 -18 -54 -39 -76 -45 l-40 -12 0 39 c0 61 -17 87 -58 91 -20 2
-37 9 -38 16 -1 7 0 8 2 3 7 -13 44 -1 44 14 0 7 3 15 8 18 4 2 1 2 -5 1 -7
-2 -25 7 -40 20 -25 21 -26 26 -13 41 8 10 15 25 15 33 0 20 86 45 158 46 20
1 37 6 37 11 0 6 17 17 38 24 43 15 207 84 270 113 24 11 50 21 58 22 9 1 19
7 22 13 11 16 52 35 52 24 0 -5 -8 -12 -17 -14 -16 -4 -16 -5 0 -6 11 0 21 7
24 18 4 15 62 53 86 55 4 1 12 8 17 16 5 8 11 12 14 9 9 -8 -24 -50 -35 -44
-5 4 -9 2 -9 -4 0 -33 51 -1 56 35 3 19 35 44 47 37 13 -8 -84 -103 -104 -103
-20 0 -72 -58 -63 -71 3 -5 -2 -9 -10 -9 -9 0 -16 -6 -16 -14 0 -25 -28 -25
-74 -2 -25 13 -46 19 -46 14 0 -6 -7 -7 -16 -4 -9 3 -12 2 -9 -5 4 -5 16 -7
27 -3 14 4 18 2 14 -5 -5 -7 2 -11 18 -11 27 0 35 -14 14 -24 -7 -3 -2 -3 12
0 24 6 24 6 -5 -20 -16 -14 -39 -29 -50 -32 -10 -4 -25 -13 -33 -20 -7 -8 -23
-14 -35 -14 -22 1 -22 1 2 14 l24 13 -29 7 c-20 5 -31 3 -40 -8 -14 -20 -30
-20 -38 -1 -3 9 0 15 10 15 8 0 12 5 9 10 -8 12 -25 13 -44 1 -12 -8 -12 -12
2 -26 19 -18 23 -45 7 -45 -5 0 -10 5 -10 10 0 6 -8 10 -17 11 -11 0 -13 3 -5
6 22 9 13 22 -24 32 -47 13 -71 -4 -46 -32 16 -18 15 -18 -11 -12 -16 4 -27 3
-27 -3 0 -46 58 -76 117 -60 21 6 54 11 74 12 20 2 55 13 79 25 34 18 45 20
51 9 6 -9 9 -8 9 7 0 34 23 0 37 -56 7 -28 21 -63 32 -78 10 -14 22 -39 27
-56 24 -77 231 -121 357 -77 32 12 104 46 159 77 76 43 103 53 109 44 6 -10
14 -8 33 11 29 27 36 66 10 56 -9 -3 -27 -9 -42 -13 -22 -5 -24 -4 -17 13 41
99 52 199 29 275 -17 58 -101 137 -173 165 l-36 14 33 -6 c23 -4 32 -2 32 8 0
8 9 24 21 37 12 12 19 25 15 28 -7 7 -36 -22 -36 -36 0 -6 -18 -11 -40 -11
-22 0 -40 -4 -40 -10 0 -5 -9 -10 -20 -10 -11 0 -20 7 -20 15 0 20 -17 19 -28
-1 -6 -11 -11 -13 -16 -5 -4 6 -12 11 -17 11 -6 0 -7 -4 -4 -10 3 -5 1 -10 -4
-10 -18 0 -12 26 9 45 20 18 21 18 14 -1 -4 -10 7 0 25 24 17 23 34 43 39 43
4 1 22 3 41 5 31 2 81 34 54 34 -7 0 -15 -4 -18 -10 -3 -5 -14 -10 -23 -10
-10 0 -2 10 21 25 20 14 42 23 49 19 6 -4 8 -3 5 3 -7 10 24 38 87 77 24 16
28 16 23 3 -4 -11 -2 -14 9 -10 8 3 13 11 11 17 -3 7 10 11 37 11 31 0 41 -4
44 -17z m2669 -165 c-4 -3 0 -11 9 -17 14 -10 13 -15 -6 -39 -25 -32 -32 -30
-35 13 -2 19 3 34 14 40 19 11 27 13 18 3z m-3182 -112 c-3 -6 -11 -11 -17
-11 -6 0 -6 6 2 15 14 17 26 13 15 -4z m230 -32 c144 -44 204 -165 161 -326
-25 -94 -81 -154 -195 -210 -87 -42 -179 -53 -274 -33 -48 10 -62 18 -91 54
-51 62 -86 142 -86 199 l0 48 126 122 c69 67 144 132 166 145 52 28 106 28
193 1z m2883 -51 c-6 -18 -28 -21 -28 -4 0 9 7 16 16 16 9 0 14 -5 12 -12z
m-3238 -52 c0 -2 -12 -11 -27 -20 l-28 -17 24 20 c23 21 31 25 31 17z m-1268
-112 c11 -60 9 -132 -3 -139 -16 -10 -21 0 -30 56 -6 37 -17 61 -44 90 -32 36
-44 67 -29 82 3 3 27 -7 52 -22 40 -23 48 -33 54 -67z m2988 -44 c7 -14 17
-19 29 -15 11 3 25 -3 36 -15 10 -11 24 -20 32 -20 7 0 13 -4 13 -9 0 -9 70
-47 81 -44 9 3 75 -70 72 -79 -2 -5 1 -8 7 -8 13 0 30 -67 30 -119 0 -29 -9
-59 -25 -88 -29 -48 -27 -47 -70 -32 -46 17 -84 5 -91 -29 -5 -25 -40 -60 -50
-50 -2 2 6 29 17 58 15 40 20 72 18 125 -2 38 0 76 4 83 5 7 31 12 67 12 34 0
62 5 66 12 9 14 -24 42 -86 73 -42 21 -180 143 -180 158 0 15 20 6 30 -13z
m-2010 -24 c0 -2 -7 -6 -15 -10 -8 -3 -15 -1 -15 4 0 6 7 10 15 10 8 0 15 -2
15 -4z m-494 -69 c-4 -28 -20 -32 -57 -13 -18 9 -38 16 -46 16 -7 0 -13 6 -13
13 0 8 17 11 60 9 54 -3 59 -6 56 -25z m3342 -44 c-8 -10 -18 -35 -21 -56 -9
-59 -53 -125 -103 -155 -47 -29 -52 -42 -29 -82 15 -27 21 -76 7 -52 -6 8 -9
1 -9 -20 0 -18 -2 -41 -4 -52 -3 -12 4 -21 17 -26 27 -10 61 12 75 47 5 13 13
21 19 18 5 -3 7 0 4 8 -14 38 99 113 131 87 22 -18 18 -37 -14 -78 -16 -20
-44 -66 -63 -102 -43 -84 -72 -101 -173 -102 -65 0 -82 4 -115 26 -51 34 -87
89 -99 150 -10 54 -17 61 -76 76 -56 15 -91 31 -50 24 25 -4 27 -3 13 6 -10 6
-18 19 -17 28 0 14 2 14 10 -3 6 -14 8 -8 4 25 l-4 45 13 -45 14 -45 1 48 c1
26 -3 47 -9 47 -5 0 -10 5 -10 10 0 15 22 12 69 -11 43 -20 91 -20 91 1 0 6 5
10 10 10 14 0 59 51 60 68 0 6 4 12 8 12 5 0 30 20 55 43 47 45 95 63 171 66
36 1 38 0 24 -16z m222 -47 c0 -3 -4 -8 -10 -11 -5 -3 -10 -1 -10 4 0 6 5 11
10 11 6 0 10 -2 10 -4z m-883 -262 c-3 -3 -12 -4 -19 -1 -8 3 -5 6 6 6 11 1
17 -2 13 -5z m249 -115 c1 -7 4 -21 6 -29 3 -8 3 -12 1 -7 -9 15 -32 7 -26 -9
4 -10 1 -14 -8 -12 -8 1 -16 -2 -19 -7 -7 -14 40 -19 53 -6 19 19 28 12 21
-16 -7 -25 -6 -27 9 -14 21 17 22 3 2 -26 -10 -14 -22 -20 -37 -16 -21 4 -22
3 -6 -10 10 -8 15 -17 11 -20 -3 -4 -1 -7 5 -7 7 0 12 3 12 8 1 13 40 55 46
49 4 -3 -1 -13 -10 -22 -9 -9 -14 -20 -11 -25 7 -11 -34 -25 -60 -21 -16 3
-17 1 -6 -13 8 -9 10 -20 6 -24 -4 -4 -10 -1 -12 6 -6 17 -23 15 -23 -3 0 -8
5 -15 12 -15 6 0 9 -3 5 -6 -3 -3 -22 0 -42 7 -31 11 -37 11 -45 -1 -5 -8 -6
-18 -3 -24 4 -5 0 -7 -8 -4 -8 3 -31 11 -51 19 -42 14 -47 23 -21 38 10 5 15
13 11 17 -10 9 -38 -15 -38 -32 0 -7 -6 -11 -14 -8 -8 3 -20 -3 -27 -14 -8
-10 -24 -24 -36 -31 -15 -7 -20 -17 -16 -28 5 -12 2 -15 -9 -11 -16 7 -38 -9
-38 -26 0 -6 5 -3 11 6 9 16 11 16 27 0 10 -10 18 -27 19 -39 l2 -22 -37 23
c-20 12 -45 25 -55 29 -10 4 -17 13 -15 21 4 18 390 347 402 343 5 -2 10 -10
12 -18z m-459 5 c-3 -3 -12 -4 -19 -1 -8 3 -5 6 6 6 11 1 17 -2 13 -5z m48
-24 c13 -6 15 -9 5 -9 -8 0 -22 4 -30 9 -18 12 -2 12 25 0z m237 -252 c22 -26
22 -26 1 -24 -14 1 -18 -6 -17 -32 2 -24 -2 -32 -13 -30 -9 2 -18 -3 -20 -10
-3 -7 1 -10 11 -6 31 12 15 -17 -16 -31 -42 -17 -48 -12 -48 35 0 40 -16 62
-30 40 -5 -8 -8 -3 -7 13 2 31 5 32 35 11 22 -15 23 -15 21 8 -5 52 -1 59 33
53 17 -3 40 -15 50 -27z m-1328 -138 l57 -49 -38 -17 c-43 -18 -130 -21 -147
-4 -8 8 -8 13 1 18 6 4 15 21 19 37 10 43 23 65 38 65 7 0 38 -22 70 -50z
m1281 -10 c-3 -5 -12 -10 -18 -10 -7 0 -6 4 3 10 19 12 23 12 15 0z m-1132
-75 c-3 -9 -8 -14 -10 -11 -3 3 -2 9 2 15 9 16 15 13 8 -4z m-93 -13 c0 -5 -9
-20 -21 -33 -19 -22 -21 -48 -8 -94 2 -5 0 -43 -5 -83 -6 -61 -10 -73 -24 -70
-21 4 -29 41 -31 135 -1 76 7 110 34 136 17 18 55 23 55 9z m-110 -233 c0 -10
7 -39 16 -64 12 -37 13 -53 4 -81 -26 -78 -50 -16 -50 130 0 51 2 57 15 46 8
-7 15 -21 15 -31z m858 -46 c-58 -63 -62 -108 -17 -177 51 -76 19 -68 -34 9
-24 34 -57 30 -76 -10 -8 -16 -18 -37 -22 -46 -4 -9 -13 -43 -20 -76 -24 -114
18 -155 91 -89 43 38 59 43 78 24 23 -23 13 -65 -33 -126 -38 -50 -53 -62
-102 -80 -75 -27 -133 -32 -133 -12 0 6 13 10 29 10 16 0 36 3 45 6 19 7 22
53 4 58 -68 20 -181 37 -202 32 -37 -9 -45 -35 -18 -57 26 -21 29 -42 5 -35
-82 22 -144 13 -183 -29 -28 -30 -40 -32 -40 -6 0 10 16 31 35 45 51 39 45 91
-15 116 -30 12 -32 22 -14 78 6 19 22 5 38 -31 15 -37 74 -103 83 -94 3 4 -5
21 -19 39 -14 18 -34 51 -46 73 -21 43 -39 115 -28 115 4 0 42 -25 85 -55 75
-52 276 -144 288 -131 9 9 7 10 -86 50 -46 20 -113 57 -150 81 -127 85 -130
90 -91 173 17 35 36 62 44 62 8 0 41 -7 73 -15 60 -16 202 -18 225 -3 9 5 6 8
-9 8 -49 0 -28 25 77 86 16 9 114 32 144 33 18 1 17 -2 -6 -26z m-1690 -56
c30 -29 38 -47 56 -130 9 -37 30 -44 210 -68 83 -11 152 -21 154 -23 4 -5 -19
-97 -30 -119 -10 -20 -48 -18 -104 4 -16 6 -69 19 -119 29 -107 22 -121 17
-157 -56 -32 -64 -89 -94 -178 -94 -71 1 -115 9 -173 34 -22 10 -36 13 -33 8
8 -13 -18 -34 -29 -24 -5 4 -5 1 -1 -5 4 -7 15 -13 24 -13 9 0 23 -4 30 -9 9
-5 -2 -7 -28 -5 -48 3 -83 31 -118 92 -18 32 -19 42 -9 62 7 14 26 29 45 35
41 12 41 21 -3 29 -31 6 -34 9 -22 26 10 17 68 38 90 32 4 -1 7 3 7 9 0 5 -13
15 -30 20 -16 6 -30 15 -30 20 0 19 46 49 76 49 18 0 36 5 39 10 3 6 -3 10
-14 10 -31 0 -25 17 12 37 34 18 119 23 175 11 31 -7 33 -6 26 14 -5 17 0 27
21 44 34 27 63 20 113 -29z m782 -52 c0 -15 -5 -25 -12 -24 -28 3 -36 -2 -51
-38 -50 -120 -55 -197 -21 -381 6 -32 6 -32 -20 -22 -33 12 -146 13 -146 1 0
-5 24 -30 53 -57 61 -56 87 -90 47 -62 -14 10 -38 25 -55 34 -16 9 -32 20 -35
23 -3 4 -17 14 -31 23 -29 19 -64 85 -79 151 -7 35 -6 58 10 111 25 87 66 135
139 161 83 30 161 73 161 90 0 8 9 15 20 15 15 0 20 -7 20 -25z m855 -115 c-3
-5 -13 -7 -23 -5 -9 2 -20 4 -24 4 -13 2 -9 39 5 44 14 6 49 -31 42 -43z m-16
-99 c8 -2 -52 -61 -61 -61 -13 0 -9 58 5 63 10 4 21 4 56 -2z m-529 -166 c17
-20 5 -45 -20 -45 -23 0 -35 22 -26 45 7 19 30 19 46 0z m-1402 -65 c4 -10 -4
-11 -29 -6 -50 10 -60 26 -14 22 22 -2 41 -9 43 -16z m1557 -40 c3 -5 2 -10
-4 -10 -5 0 -13 5 -16 10 -3 6 -2 10 4 10 5 0 13 -4 16 -10z m-186 -55 c17
-30 43 -61 58 -68 41 -21 101 -28 129 -15 20 9 28 8 41 -5 24 -24 6 -39 -79
-66 -114 -36 -126 -41 -143 -68 -26 -39 -39 -24 -36 40 2 44 -3 70 -23 113
-14 31 -26 61 -26 66 0 13 31 58 40 58 5 0 22 -25 39 -55z m157 17 c70 -51 71
-57 10 -71 -46 -10 -59 -10 -84 3 -38 20 -46 43 -27 72 21 32 53 30 101 -4z
m-287 -64 c-8 -7 -20 -13 -26 -14 -28 -2 -33 -4 -33 -15 0 -5 6 -7 13 -4 6 4
-10 -14 -38 -39 -27 -25 -54 -46 -59 -46 -6 0 -2 6 9 13 10 8 25 29 34 46 14
29 30 42 91 71 21 10 25 4 9 -12z m-149 -54 c0 -4 -9 1 -20 11 -11 10 -20 23
-20 28 0 6 9 1 20 -11 11 -12 20 -24 20 -28z m-170 -6 c0 -5 6 -8 13 -7 6 1
23 -3 37 -9 22 -11 20 -11 -20 -8 -25 2 -35 1 -22 -1 12 -2 22 -9 22 -14 0 -6
-9 -8 -20 -4 -11 4 -29 0 -41 -9 -12 -8 -27 -12 -34 -10 -10 4 -10 -3 1 -37
14 -40 11 -66 -5 -40 -6 10 -17 10 -51 1 -23 -6 -45 -9 -48 -6 -3 3 0 6 6 6 7
0 12 5 12 11 0 17 -21 -1 -31 -27 -5 -14 -15 -24 -21 -23 -25 3 -38 -1 -38
-12 0 -8 5 -8 15 1 13 11 15 10 14 -6 -4 -38 1 -64 12 -64 6 0 9 6 6 13 -7 19
20 65 43 72 11 3 20 11 20 16 0 5 12 9 26 9 26 0 26 -1 -19 -44 -25 -25 -42
-47 -39 -51 4 -4 -6 -18 -23 -31 -25 -20 -27 -24 -11 -24 10 0 24 7 30 16 9
11 20 13 40 8 19 -5 24 -9 15 -15 -7 -4 -16 -6 -21 -3 -11 7 -48 -19 -48 -33
0 -15 -27 -18 -32 -4 -1 5 -16 12 -33 16 -24 5 -27 4 -12 -5 21 -14 22 -49 2
-57 -19 -7 -50 -63 -35 -63 5 0 10 5 10 11 0 15 39 49 57 49 7 0 13 -9 13 -20
0 -11 -4 -20 -10 -20 -5 0 -10 -5 -10 -10 0 -6 -9 -20 -19 -31 l-19 -20 -25
27 c-22 23 -23 29 -11 41 8 8 14 21 14 29 0 8 5 14 10 14 18 0 10 31 -12 51
-25 20 -73 25 -83 9 -8 -14 -42 -13 -51 1 -4 6 9 26 29 44 20 18 33 36 29 40
-4 4 -2 5 3 4 16 -6 72 32 86 58 7 13 18 23 25 23 7 0 19 9 27 20 7 11 34 34
58 52 24 17 50 40 57 50 7 10 19 18 27 18 8 0 12 6 9 14 -5 12 1 13 35 4 23
-6 41 -15 41 -20z m1420 -18 c47 -5 129 -10 183 -11 53 -1 97 -5 97 -10 0 -19
-42 -186 -53 -211 -11 -26 -24 -33 -55 -29 -8 1 -38 28 -68 60 -71 77 -147
116 -248 130 -44 6 -82 13 -84 16 -23 22 67 78 113 69 17 -3 68 -9 115 -14z
m-496 -41 c14 -17 26 -34 26 -39 0 -16 -88 -68 -99 -59 -8 6 -8 5 -1 -3 13
-16 13 -31 0 -23 -6 4 -10 3 -9 -2 3 -14 -40 -101 -53 -106 -19 -7 -153 48
-151 61 2 7 -2 11 -8 9 -6 -1 -28 26 -49 59 l-37 62 56 5 c71 7 190 33 233 52
48 21 63 18 92 -16z m-784 3 c-21 -7 -9 -23 13 -17 20 6 19 4 -8 -23 -16 -16
-33 -28 -36 -26 -3 2 -16 -10 -28 -26 -11 -16 -46 -48 -75 -70 -48 -36 -57
-40 -77 -30 -12 7 -34 9 -50 6 -16 -3 -29 -2 -29 3 0 15 29 21 56 10 15 -5 29
-7 32 -5 2 3 -7 8 -22 12 -14 3 -26 12 -26 19 0 21 27 37 51 30 21 -7 21 -5
15 48 l-7 55 32 7 c25 6 35 3 46 -11 7 -10 13 -12 13 -6 0 7 7 12 15 12 19 0
19 -2 -5 -44 -15 -23 -17 -36 -10 -41 6 -4 12 -5 13 -4 2 2 13 23 25 46 l23
42 -25 7 c-14 3 -30 3 -35 -1 -6 -3 -11 -2 -11 3 0 6 27 9 60 9 34 -1 56 -3
50 -5z m1112 -63 c29 -7 76 -22 105 -35 28 -13 56 -24 61 -24 19 0 96 -76 112
-112 16 -35 16 -45 3 -111 -28 -142 -82 -200 -231 -247 -146 -46 -311 -6 -404
99 -52 59 -68 91 -75 150 -14 120 64 240 178 273 65 19 178 22 251 7z m-1362
-139 c0 -5 -4 -10 -10 -10 -5 0 -10 5 -10 10 0 6 5 10 10 10 6 0 10 -4 10 -10z
m1918 -32 c23 -48 23 -68 -4 -135 -14 -37 -33 -75 -41 -83 -12 -13 -14 -3 -14
70 0 114 -3 139 -11 133 -5 -2 -8 2 -8 11 0 32 62 35 78 4z m-2282 -5 c-3 -4
24 -39 62 -77 38 -39 80 -91 93 -114 l24 -44 -25 -20 c-13 -10 -31 -17 -39
-15 -45 13 -46 12 -44 -15 2 -34 -10 -36 -24 -5 -23 50 -115 146 -162 170 -53
26 -53 31 -3 66 18 12 30 26 27 31 -3 5 3 13 12 19 20 12 90 15 79 4z m1182
-81 c6 -37 10 -68 8 -69 -10 -10 -34 12 -43 40 -30 85 -27 126 6 106 11 -8 21
-34 29 -77z m-1022 42 c19 -20 22 -29 14 -45 -15 -27 -29 -24 -58 13 -9 11
-10 18 -2 23 5 3 15 -6 20 -21 13 -32 25 -25 16 9 -6 26 -38 46 -44 28 -2 -6
-8 -11 -14 -11 -6 0 -6 6 2 15 18 22 40 18 66 -11z m708 17 c3 -5 22 -12 41
-15 19 -4 35 -11 35 -15 0 -9 188 -114 312 -175 43 -20 82 -45 87 -55 15 -28
109 -87 184 -117 65 -26 80 -38 55 -47 -10 -3 -8 -9 5 -24 27 -31 22 -46 -15
-39 -95 17 -125 17 -194 5 -58 -10 -74 -17 -72 -29 2 -9 16 -16 38 -18 34 -2
128 -22 218 -45 52 -14 54 -27 5 -28 -53 -1 -196 -41 -201 -56 -3 -10 29 -13
137 -13 86 0 141 -4 141 -10 0 -10 -10 -13 -115 -34 -38 -7 -99 -21 -135 -30
-122 -31 -295 -78 -340 -92 -25 -7 -71 -21 -103 -29 -31 -9 -70 -27 -86 -41
l-29 -24 -6 58 c-9 75 -33 202 -42 227 -35 90 -228 275 -337 323 -43 19 -97
16 -99 -5 -1 -10 -2 -25 -4 -33 -1 -8 -2 -30 -3 -47 -1 -18 -5 -33 -11 -33 -6
0 -10 32 -10 75 0 73 0 75 28 80 15 3 72 20 127 37 55 18 102 32 105 33 25 4
92 47 122 77 29 29 44 37 61 33 19 -5 26 1 42 32 19 37 21 45 24 71 1 14 27
16 35 3z m1853 -92 c41 -26 37 -33 -14 -24 -45 7 -79 45 -42 45 12 0 37 -10
56 -21z m-62 -49 c26 -11 67 -20 92 -20 39 0 53 -6 102 -48 145 -122 242 -175
447 -246 195 -66 193 -66 211 -100 19 -35 21 -45 24 -136 2 -43 -2 -73 -12
-88 -29 -48 -269 -172 -332 -172 -40 0 -159 24 -397 80 -107 24 -282 81 -338
109 -23 12 -57 24 -75 28 -17 3 -50 14 -71 24 -22 11 -48 19 -58 19 -10 0 -26
4 -36 9 -9 5 -38 15 -64 21 -26 7 -46 15 -44 19 2 3 -6 7 -19 7 -30 2 -165 64
-165 76 0 5 6 6 13 2 9 -6 9 -4 -1 8 -11 14 -7 18 38 33 54 18 97 15 183 -12
62 -20 163 -13 240 17 57 23 76 50 35 50 -13 0 -56 7 -96 15 -79 17 -59 19
-317 -30 -38 -7 -73 -11 -78 -8 -11 6 -39 64 -34 69 2 3 47 9 98 15 153 17
295 72 374 146 11 10 45 34 75 53 30 19 68 44 83 57 35 28 62 29 122 3z
m-3290 -69 c11 -16 37 -48 59 -73 52 -59 174 -262 187 -311 22 -82 -16 -148
-41 -72 -6 19 -36 69 -65 110 -30 41 -52 81 -49 89 3 8 0 17 -7 22 -14 8 -63
-45 -84 -91 -7 -17 -23 -39 -34 -49 -22 -20 -28 -46 -12 -46 5 0 29 18 52 40
48 45 64 45 31 0 -27 -36 -28 -50 -3 -50 11 0 21 -6 24 -12 3 -9 10 -8 26 6
13 12 25 16 30 10 20 -23 63 -216 54 -243 -20 -58 -66 -139 -88 -155 -14 -11
-38 -30 -53 -44 -48 -42 -66 -51 -127 -61 -70 -11 -62 -15 -220 105 -193 146
-299 238 -309 267 -31 88 138 322 334 463 190 136 251 156 295 95z m505 9 c0
-4 -6 -11 -12 -13 -7 -3 -4 -6 8 -6 21 -1 55 -28 84 -66 14 -18 14 -19 -2 -7
-14 11 -21 11 -42 -3 -15 -10 -33 -14 -46 -10 -15 5 -20 2 -19 -12 0 -10 2
-13 5 -8 2 6 25 8 50 6 35 -2 48 -8 51 -22 8 -30 24 -22 17 9 -5 18 -3 24 4
17 26 -25 18 -50 -26 -82 -45 -32 -62 -34 -62 -7 0 8 -4 14 -8 14 -5 0 -19 18
-31 40 -13 23 -31 46 -42 53 -26 16 -24 30 3 16 18 -10 20 -9 14 6 -4 11 0 25
10 36 11 12 13 19 5 19 -6 0 -14 -6 -17 -14 -3 -8 -17 -22 -31 -31 -23 -15
-27 -15 -41 -2 -13 14 -11 19 19 47 19 18 43 35 54 40 21 8 55 -4 55 -20z
m-190 -77 c83 -43 180 -153 180 -205 0 -15 -98 -118 -112 -118 -5 0 -21 12
-35 26 -14 14 -40 34 -57 43 -32 18 -72 67 -116 142 -14 23 -32 49 -40 57 -13
13 -13 15 0 10 8 -2 21 3 30 13 13 15 76 56 90 58 3 1 30 -11 60 -26z m265
-33 c3 -6 -1 -7 -9 -4 -18 7 -21 14 -7 14 6 0 13 -4 16 -10z m212 -6 c-3 -3
-12 -4 -19 -1 -8 3 -5 6 6 6 11 1 17 -2 13 -5z m-47 -39 c7 -9 8 -15 2 -15 -5
0 -12 7 -16 15 -3 8 -4 15 -2 15 2 0 9 -7 16 -15z m1737 -57 c13 -12 23 -29
23 -38 0 -15 -6 -16 -37 -9 -58 13 -146 29 -168 32 -11 1 -27 7 -35 12 -11 7
1 12 45 16 125 12 147 10 172 -13z m-1326 -9 c20 -10 20 -12 3 -30 -9 -10 -20
-16 -25 -14 -4 3 -10 2 -13 -3 -3 -5 0 -9 7 -9 7 0 21 -4 32 -8 14 -5 16 -4 6
3 -10 7 -10 11 -1 17 7 4 16 1 21 -6 6 -10 9 -11 9 -1 0 6 4 12 10 12 5 0 9
-10 7 -22 -1 -14 4 -23 13 -24 8 0 9 1 3 3 -15 5 -17 23 -3 23 17 0 75 -58 67
-67 -5 -4 -15 0 -22 10 -9 12 -15 14 -20 7 -5 -8 -11 -8 -21 1 -25 20 -15 -7
11 -31 14 -13 25 -19 25 -12 0 6 10 12 23 14 16 2 29 -6 47 -32 13 -19 23 -39
22 -44 -2 -4 4 -13 12 -20 17 -12 24 -64 12 -84 -4 -7 -24 -12 -46 -12 -24 0
-40 -5 -44 -15 -3 -8 -17 -15 -31 -15 -14 0 -24 -5 -22 -11 3 -15 -15 -21 -32
-10 -19 12 -5 31 24 31 13 0 27 5 30 10 13 21 -43 9 -71 -15 -19 -16 -24 -25
-14 -25 8 0 21 -4 29 -9 12 -8 12 -12 2 -25 -17 -21 -35 -21 -27 0 3 9 2 12
-5 9 -6 -4 -8 -13 -5 -21 3 -9 -13 -32 -41 -59 -26 -25 -48 -45 -50 -45 -2 0
8 18 23 41 38 61 24 56 -19 -7 -36 -54 -52 -97 -21 -58 9 11 14 13 11 4 -2 -8
-16 -21 -32 -30 -16 -9 -31 -22 -33 -30 -5 -13 -3 -13 13 0 17 14 17 14 4 -8
-8 -12 -20 -20 -28 -17 -9 3 -11 0 -8 -10 7 -18 -9 -30 -17 -13 -2 7 -4 4 -3
-7 1 -11 -18 -50 -43 -88 l-44 -67 -47 46 -48 47 54 106 c67 133 116 252 169
409 23 67 52 135 65 150 12 15 19 20 16 12 -4 -8 3 -5 14 8 11 13 17 30 14 37
-6 18 10 19 38 4z m3294 -49 c-3 -5 0 -7 9 -4 17 7 56 -12 56 -27 0 -6 -5 -7
-11 -3 -7 4 -10 1 -7 -7 2 -7 -31 -56 -75 -109 -43 -52 -111 -134 -151 -182
-84 -102 -123 -128 -195 -128 -28 0 -51 4 -51 9 0 5 24 23 53 39 28 16 68 46
87 66 33 35 35 42 40 118 l5 82 52 30 c28 17 69 47 90 67 21 19 47 40 58 47
25 14 48 15 40 2z m-2038 -14 c51 -8 97 -17 103 -21 12 -8 13 -42 1 -49 -12
-8 -134 30 -196 59 -61 29 -44 31 92 11z m-1152 -66 c3 -5 1 -10 -4 -10 -6 0
-11 5 -11 10 0 6 2 10 4 10 3 0 8 -4 11 -10z"/>
<path d="M2888 5543 c7 -3 16 -2 19 1 4 3 -2 6 -13 5 -11 0 -14 -3 -6 -6z"/>
<path d="M2653 5513 c9 -2 23 -2 30 0 6 3 -1 5 -18 5 -16 0 -22 -2 -12 -5z"/>
<path d="M1318 5413 c7 -3 16 -2 19 1 4 3 -2 6 -13 5 -11 0 -14 -3 -6 -6z"/>
<path d="M1348 5383 c7 -3 16 -2 19 1 4 3 -2 6 -13 5 -11 0 -14 -3 -6 -6z"/>
<path d="M1515 5350 c3 -5 8 -10 11 -10 2 0 4 5 4 10 0 6 -5 10 -11 10 -5 0
-7 -4 -4 -10z"/>
<path d="M1742 5241 c-11 -6 -9 -9 6 -13 15 -4 19 -2 15 8 -6 16 -4 16 -21 5z"/>
<path d="M2195 5190 c-3 -5 -1 -10 4 -10 6 0 11 5 11 10 0 6 -2 10 -4 10 -3 0
-8 -4 -11 -10z"/>
<path d="M990 5180 c0 -5 5 -10 10 -10 6 0 10 5 10 10 0 6 -4 10 -10 10 -5 0
-10 -4 -10 -10z"/>
<path d="M2008 4873 c6 -2 18 -2 25 0 6 3 1 5 -13 5 -14 0 -19 -2 -12 -5z"/>
<path d="M3490 5334 c0 -11 28 -33 34 -27 10 10 7 25 -4 18 -5 -3 -10 -1 -10
4 0 6 -4 11 -10 11 -5 0 -10 -3 -10 -6z"/>
<path d="M2585 5161 c-17 -10 -55 -31 -85 -47 -116 -62 -249 -150 -259 -171
-20 -44 28 -281 61 -302 20 -12 147 -46 271 -71 65 -13 134 -2 197 31 19 10
69 34 110 53 92 43 219 111 232 124 12 12 -12 203 -35 282 l-13 44 -74 18
c-59 13 -343 58 -370 58 -3 0 -19 -8 -35 -19z m147 -63 c-2 -21 -10 -57 -18
-80 -8 -24 -20 -87 -26 -141 -7 -53 -16 -96 -21 -94 -6 2 -12 30 -14 62 -2 33
-8 93 -13 133 -6 40 -10 94 -10 118 l0 45 53 -3 52 -3 -3 -37z m-232 -33 c0
-3 -18 -61 -39 -128 -22 -67 -42 -137 -46 -154 -7 -37 -25 -54 -25 -24 0 11
-12 56 -26 101 -14 44 -24 90 -20 103 6 27 156 124 156 102z m-186 -196 c4
-22 4 -44 1 -50 -4 -5 -1 -9 5 -9 7 0 9 -7 6 -17 -4 -9 -1 -20 6 -25 10 -6 10
-10 -2 -18 -24 -15 -31 2 -33 83 -2 83 6 102 17 36z m721 -99 c-3 -5 -12 -10
-18 -10 -7 0 -6 4 3 10 19 12 23 12 15 0z m-685 -41 c0 -7 7 -17 16 -24 14
-10 12 -12 -14 -12 -30 0 -48 19 -36 38 8 13 34 11 34 -2z m530 -34 c-14 -8
-32 -14 -40 -14 -8 0 -1 7 15 14 39 18 57 18 25 0z m-435 -30 c33 -17 70 -26
129 -31 60 -5 83 -10 83 -20 0 -13 -8 -13 -74 2 -16 4 -46 8 -68 9 -49 3 -175
36 -175 46 0 4 10 10 23 12 12 2 25 5 29 6 4 0 28 -10 53 -24z m361 0 c-11 -8
-27 -15 -35 -15 -10 1 -7 6 9 15 33 19 50 18 26 0z m-56 -20 c0 -5 -55 -35
-65 -35 -4 0 -5 6 -3 12 5 14 68 36 68 23z"/>
<path d="M2320 4720 c0 -5 5 -10 11 -10 5 0 7 5 4 10 -3 6 -8 10 -11 10 -2 0
-4 -4 -4 -10z"/>
<path d="M1199 5057 c-24 -18 -56 -41 -71 -50 -24 -15 -28 -24 -28 -62 0 -25
7 -80 15 -122 8 -43 17 -94 20 -115 7 -47 64 -99 154 -142 58 -27 76 -31 151
-30 65 0 103 7 159 27 111 39 108 32 88 194 -13 102 -22 142 -35 154 -24 23
-362 179 -388 179 -12 0 -41 -15 -65 -33z m75 -29 c3 -13 6 -34 6 -48 0 -38
-32 -200 -41 -200 -3 0 -10 26 -13 58 -4 31 -14 81 -23 111 l-17 54 28 23 c34
30 52 30 60 2z m93 -13 c23 -14 43 -31 43 -38 0 -20 -22 -210 -27 -237 -5 -25
-5 -25 -14 -3 -4 12 -20 78 -34 145 -14 68 -28 131 -31 141 -7 24 12 21 63 -8z
m-223 -80 c-4 -8 -8 -15 -10 -15 -2 0 -4 7 -4 15 0 8 4 15 10 15 5 0 7 -7 4
-15z m12 -42 c-11 -11 -17 4 -9 23 7 18 8 18 11 1 2 -10 1 -21 -2 -24z m14
-45 c-1 -26 -3 -30 -10 -16 -6 9 -7 23 -4 32 9 25 14 19 14 -16z m16 -73 c3
-19 12 -40 20 -46 9 -7 12 -20 8 -32 -5 -16 -3 -19 11 -14 22 9 86 -39 78 -59
-3 -8 -1 -14 5 -14 6 0 12 6 15 13 2 6 8 8 13 4 5 -4 2 -13 -6 -18 -12 -8 -10
-10 7 -6 26 6 42 -10 19 -19 -12 -4 -45 10 -76 34 -2 1 1 7 9 11 10 7 9 9 -3
14 -9 4 -15 3 -15 -1 5 -28 -9 -21 -60 31 -17 17 -28 40 -29 57 0 16 -5 38
-11 49 -13 24 -14 31 -1 31 5 0 12 -16 16 -35z m419 -165 c-3 -5 -12 -10 -18
-10 -7 0 -6 4 3 10 19 12 23 12 15 0z m-38 -16 c-3 -3 -12 -4 -19 -1 -8 3 -5
6 6 6 11 1 17 -2 13 -5z m-40 -10 c-3 -3 -12 -4 -19 -1 -8 3 -5 6 6 6 11 1 17
-2 13 -5z m-69 -11 c-16 -2 -40 -2 -55 0 -16 2 -3 4 27 4 30 0 43 -2 28 -4z"/>
<path d="M1230 4672 c0 -12 19 -26 26 -19 2 2 -2 10 -11 17 -9 8 -15 8 -15 2z"/>
<path d="M3959 4777 c13 -17 81 -40 90 -31 11 10 -28 35 -65 41 -35 6 -38 5
-25 -10z"/>
<path d="M4140 4602 c0 -10 44 -32 63 -32 17 0 -14 27 -40 35 -13 3 -23 2 -23
-3z"/>
<path d="M3760 4591 c0 -11 35 -57 79 -103 37 -40 74 -49 85 -22 9 24 8 26
-14 19 -26 -8 -60 16 -99 70 -30 42 -51 57 -51 36z"/>
<path d="M3950 4563 c0 -14 57 -53 82 -56 17 -1 24 4 26 21 3 20 8 23 28 18
14 -4 24 -2 24 4 0 18 -30 23 -55 10 -23 -12 -51 -11 -87 5 -10 4 -18 3 -18
-2z"/>
<path d="M3506 4512 c-10 -16 35 -93 80 -137 26 -25 48 -44 51 -42 8 9 -33
117 -44 117 -7 0 -13 -7 -13 -16 0 -29 -20 -3 -31 42 -10 40 -30 57 -43 36z"/>
<path d="M4247 4394 c-4 -4 12 -16 34 -27 28 -14 46 -31 55 -54 17 -41 39 -45
29 -5 -9 36 -33 62 -72 78 -37 16 -38 16 -46 8z"/>
<path d="M3727 4304 c-3 -4 3 -24 14 -46 23 -45 34 -45 24 1 -7 31 -27 55 -38
45z"/>
<path d="M4265 4260 c-7 -12 33 -49 53 -50 19 0 15 14 -11 38 -26 25 -33 27
-42 12z"/>
<path d="M4286 4165 c4 -8 10 -12 15 -9 11 6 2 24 -11 24 -5 0 -7 -7 -4 -15z"/>
<path d="M1528 4363 c7 -3 16 -2 19 1 4 3 -2 6 -13 5 -11 0 -14 -3 -6 -6z"/>
<path d="M2088 4283 c7 -3 16 -2 19 1 4 3 -2 6 -13 5 -11 0 -14 -3 -6 -6z"/>
<path d="M6253 4375 c-7 -7 -18 -15 -25 -18 -7 -2 -10 -8 -6 -12 5 -5 16 -1
25 7 10 9 25 17 32 20 13 4 13 5 0 10 -8 3 -19 0 -26 -7z"/>
<path d="M6151 4315 c-19 -16 -28 -32 -24 -41 4 -10 1 -15 -8 -13 -8 1 -22 -1
-31 -5 -14 -6 -9 -12 27 -32 25 -13 52 -21 60 -18 24 10 17 22 -10 16 -14 -2
-25 0 -25 6 0 6 -6 12 -12 15 -7 2 1 2 17 1 17 -2 24 -1 17 2 -6 3 -9 10 -6
16 4 6 1 14 -6 18 -21 13 13 40 50 40 18 0 29 4 25 10 -11 17 -42 11 -74 -15z"/>
<path d="M6240 4290 c0 -5 4 -10 9 -10 6 0 13 5 16 10 3 6 -1 10 -9 10 -9 0
-16 -4 -16 -10z"/>
<path d="M5861 4067 c-6 -8 -8 -17 -4 -20 7 -8 33 11 33 24 0 13 -16 11 -29
-4z"/>
<path d="M5825 4022 c-23 -4 -126 -91 -107 -92 6 0 21 9 32 20 11 11 27 20 35
20 8 0 15 9 15 20 0 12 7 20 16 20 13 0 15 -7 11 -30 -4 -17 -2 -30 3 -30 6 0
10 14 10 30 0 27 3 30 31 30 17 0 28 4 24 10 -6 9 -23 10 -70 2z"/>
<path d="M5767 3937 c-29 -7 -38 -14 -34 -26 2 -9 -2 -22 -10 -29 -15 -15 -8
-36 9 -26 6 4 17 -1 25 -11 7 -11 13 -13 13 -7 0 7 7 12 15 12 8 0 15 9 15 20
0 11 7 20 15 20 8 0 25 10 36 21 l22 22 -29 -7 c-34 -9 -35 -9 -54 -6 -8 1 -4
5 10 9 40 11 9 19 -33 8z m5 -62 c-6 -34 -12 -32 -12 6 0 16 4 28 9 25 4 -3 6
-17 3 -31z"/>
<path d="M5629 3871 c-15 -12 -19 -20 -11 -25 7 -4 12 -1 12 9 0 12 6 15 23
10 12 -4 26 -11 32 -16 12 -12 25 -11 25 1 0 5 -13 16 -29 25 -27 13 -31 13
-52 -4z"/>
<path d="M5594 3834 c3 -8 2 -12 -4 -9 -13 8 -60 -24 -60 -41 0 -7 -5 -16 -12
-20 -7 -5 -8 -3 -3 7 5 8 -11 -5 -35 -28 -24 -24 -40 -46 -36 -50 4 -4 11 -2
15 5 5 9 17 11 34 6 17 -4 27 -2 27 5 0 6 -7 11 -15 11 -8 0 -15 4 -15 9 0 13
28 22 32 10 2 -6 12 -7 27 -1 21 7 22 10 8 23 -13 13 -13 18 0 35 14 19 15 19
33 -3 24 -30 57 -29 72 2 6 13 15 22 20 19 6 -4 8 2 6 12 -2 12 -13 20 -28 22
-18 2 -21 0 -11 -6 23 -16 -4 -22 -33 -7 -25 13 -27 13 -22 -1z"/>
<path d="M5720 3820 c0 -5 7 -10 15 -10 8 0 15 5 15 10 0 6 -7 10 -15 10 -8 0
-15 -4 -15 -10z"/>
<path d="M5633 3760 c-13 -5 -23 -14 -23 -20 0 -16 18 -12 40 10 22 22 18 24
-17 10z"/>
<path d="M5400 3675 c-13 -14 -29 -25 -37 -25 -7 0 -13 -5 -13 -11 0 -5 4 -8
9 -4 5 3 16 -1 24 -10 13 -13 17 -13 29 2 11 15 11 16 -4 10 -13 -4 -18 -1
-18 9 0 11 6 15 20 11 22 -6 37 8 20 18 -6 4 -8 11 -5 16 11 17 -1 9 -25 -16z"/>
<path d="M3180 4292 c-5 -2 -10 -7 -10 -11 0 -4 25 -6 55 -3 46 4 55 2 55 -12
0 -11 -9 -16 -31 -16 -18 0 -28 -4 -24 -10 4 -6 16 -8 27 -4 12 3 24 1 28 -5
5 -9 10 -8 20 4 8 10 9 15 1 15 -6 0 -11 10 -11 23 0 20 -5 22 -50 22 -27 0
-54 -1 -60 -3z"/>
<path d="M3320 4285 c-7 -9 -10 -18 -7 -22 8 -7 37 15 37 28 0 14 -16 11 -30
-6z"/>
<path d="M3175 4260 c-19 -8 -19 -9 3 -9 12 -1 22 4 22 9 0 6 -1 10 -2 9 -2 0
-12 -4 -23 -9z"/>
<path d="M3202 4205 c0 -16 2 -22 5 -12 2 9 2 23 0 30 -3 6 -5 -1 -5 -18z"/>
<path d="M3240 4200 c0 -5 5 -10 10 -10 6 0 10 5 10 10 0 6 -4 10 -10 10 -5 0
-10 -4 -10 -10z"/>
<path d="M3021 4181 c-7 -5 -12 -14 -10 -20 2 -6 10 -2 17 9 14 22 13 23 -7
11z"/>
<path d="M3066 4181 c-4 -5 3 -7 14 -4 23 6 26 13 6 13 -8 0 -17 -4 -20 -9z"/>
<path d="M4003 4168 c-23 -29 -44 -83 -112 -295 -69 -218 -70 -223 -54 -252
17 -28 16 -30 -9 -68 -14 -21 -29 -49 -33 -63 l-7 -25 24 23 c34 31 44 28 14
-5 -14 -15 -24 -28 -22 -30 4 -4 62 45 90 76 11 14 45 49 75 80 65 67 81 102
81 181 0 47 -4 64 -20 80 -12 12 -25 18 -30 15 -6 -4 -10 0 -10 7 0 9 -3 9
-10 -2 -9 -13 -11 -13 -20 0 -8 13 -10 12 -10 -2 0 -10 -4 -18 -10 -18 -15 0
-12 26 5 40 8 7 21 10 29 7 8 -3 20 1 26 8 7 8 17 12 22 9 6 -4 14 -1 18 6 4
7 13 9 20 5 9 -6 9 -9 -1 -16 -10 -6 -10 -9 -2 -9 19 0 24 17 9 33 -9 9 -11
19 -5 28 5 8 9 24 9 37 0 30 -27 29 -42 -3 -6 -13 -15 -22 -20 -19 -5 3 -5 11
1 18 12 14 28 104 17 95 -4 -4 -9 -24 -12 -44 -2 -21 -8 -43 -11 -49 -4 -6 -7
-20 -8 -31 0 -20 -35 -36 -35 -16 0 6 5 11 11 11 5 0 7 5 4 11 -4 5 0 18 9 28
10 11 14 25 10 36 -5 13 -4 16 5 11 8 -5 11 -3 10 5 -5 24 12 59 27 59 10 0
14 8 12 22 -3 26 -30 35 -45 16z m-13 -344 c-13 17 -13 19 0 14 24 -8 18 -134
-8 -160 -17 -18 -20 -18 -35 -4 -10 10 -18 12 -22 6 -3 -5 -1 -10 4 -10 6 0
11 -7 11 -16 0 -8 -4 -12 -10 -9 -5 3 -7 0 -4 -8 3 -8 -3 -20 -12 -28 -10 -8
-15 -9 -11 -2 4 6 2 13 -3 15 -12 4 -15 101 -5 147 6 28 9 30 22 19 17 -14 83
-18 83 -5 0 14 -32 20 -40 7 -10 -17 -40 -5 -40 16 0 13 3 14 14 5 10 -8 16
-9 21 -1 3 5 1 10 -5 10 -6 0 -8 4 -5 10 4 6 17 3 33 -7 26 -17 27 -17 12 1z
m-110 -160 c0 -8 -4 -12 -10 -9 -5 3 -10 10 -10 16 0 5 5 9 10 9 6 0 10 -7 10
-16z m-10 -134 c0 -5 -5 -10 -11 -10 -5 0 -7 5 -4 10 3 6 8 10 11 10 2 0 4 -4
4 -10z"/>
<path d="M3907 3735 c7 -49 13 -58 13 -19 0 16 -5 36 -10 44 -6 10 -7 2 -3
-25z"/>
<path d="M3178 4163 c7 -3 16 -2 19 1 4 3 -2 6 -13 5 -11 0 -14 -3 -6 -6z"/>
<path d="M3190 4139 c0 -5 5 -7 10 -4 6 3 10 8 10 11 0 2 -4 4 -10 4 -5 0 -10
-5 -10 -11z"/>
<path d="M3145 4110 c-10 -11 -14 -20 -9 -20 12 1 44 25 44 34 0 12 -17 6 -35
-14z"/>
<path d="M4040 4071 c0 -6 5 -13 10 -16 6 -3 10 1 10 9 0 9 -4 16 -10 16 -5 0
-10 -4 -10 -9z"/>
<path d="M2605 3909 c-10 -15 1 -23 20 -15 9 3 13 10 10 16 -8 13 -22 13 -30
-1z"/>
<path d="M4025 3900 c10 -11 23 -20 28 -20 6 0 2 9 -8 20 -10 11 -23 20 -28
20 -6 0 -2 -9 8 -20z"/>
<path d="M2530 3889 c0 -5 5 -7 10 -4 6 3 10 8 10 11 0 2 -4 4 -10 4 -5 0 -10
-5 -10 -11z"/>
<path d="M2545 3870 c-3 -5 -1 -10 4 -10 6 0 11 5 11 10 0 6 -2 10 -4 10 -3 0
-8 -4 -11 -10z"/>
<path d="M2488 3823 c6 -2 12 -11 12 -19 0 -9 5 -12 10 -9 13 8 -6 35 -24 34
-7 0 -6 -2 2 -6z"/>
<path d="M2304 3795 c-17 -13 -17 -14 -1 -15 9 0 17 4 17 9 0 5 8 12 18 14 13
4 14 5 1 6 -8 0 -24 -6 -35 -14z"/>
<path d="M2147 3732 c6 -4 15 -22 20 -41 5 -19 14 -36 21 -39 14 -4 16 24 2
33 -5 3 -10 14 -10 25 0 10 -7 21 -16 24 -21 8 -32 7 -17 -2z"/>
<path d="M1628 3709 c-26 -15 -24 -89 3 -123 37 -47 110 -30 125 30 10 40 -3
70 -40 88 -39 18 -63 20 -88 5z"/>
<path d="M2025 3711 c-27 -6 -24 -8 27 -15 35 -4 64 -3 75 3 13 7 6 8 -27 5
-33 -4 -41 -3 -30 5 13 10 13 11 0 10 -8 -1 -28 -4 -45 -8z"/>
<path d="M2355 3650 c-3 -5 1 -10 9 -10 9 0 16 5 16 10 0 6 -4 10 -9 10 -6 0
-13 -4 -16 -10z"/>
<path d="M2424 3646 c-10 -8 -16 -17 -13 -20 3 -3 14 1 25 8 10 8 16 17 13 20
-3 3 -14 -1 -25 -8z"/>
<path d="M2220 3640 c0 -5 9 -10 19 -10 11 0 23 5 26 10 4 6 -5 10 -19 10 -14
0 -26 -4 -26 -10z"/>
<path d="M2160 3630 c0 -5 4 -10 9 -10 6 0 13 5 16 10 3 6 -1 10 -9 10 -9 0
-16 -4 -16 -10z"/>
<path d="M2311 3621 c22 -18 22 -20 7 -26 -10 -4 -26 -4 -35 0 -17 7 -16 8 2
15 16 7 17 9 3 9 -39 2 -67 -31 -35 -42 9 -3 9 -7 -1 -20 -18 -22 -7 -37 26
-36 24 2 24 2 5 6 -35 7 -27 19 14 21 35 3 74 22 45 22 -7 0 -12 7 -12 15 0
14 24 20 58 16 6 -1 12 2 12 8 0 5 -17 9 -37 8 -20 -1 -38 4 -41 11 -2 7 -11
12 -19 12 -11 0 -8 -6 8 -19z"/>
<path d="M3330 3612 c0 -28 25 -34 46 -11 15 17 15 19 1 19 -8 0 -22 3 -31 6
-11 4 -16 0 -16 -14z"/>
<path d="M2063 3593 c-15 -5 -18 -33 -4 -33 5 0 11 9 14 20 3 11 4 20 4 19 -1
0 -8 -3 -14 -6z"/>
<path d="M3267 3533 c-4 -3 -7 -13 -7 -22 0 -54 -247 -165 -525 -235 -295 -75
-575 -95 -808 -57 -72 12 -144 29 -160 37 -24 14 -28 14 -33 -1 -4 -9 1 -24
10 -34 9 -10 16 -24 16 -32 0 -26 88 -163 132 -205 61 -59 166 -128 232 -153
198 -74 458 -67 667 17 202 82 255 109 394 202 91 62 151 123 171 177 23 61
15 182 -16 243 -29 56 -57 80 -73 63z m49 -94 c18 -35 12 -79 -11 -79 -8 0
-15 -4 -15 -9 0 -5 -10 -13 -22 -17 -12 -3 -38 -19 -59 -34 -44 -32 -154 -74
-174 -66 -8 3 -21 19 -30 36 -17 32 -8 60 19 60 18 0 208 96 236 119 33 27 37
26 56 -10z m-480 -233 c-13 -33 -30 -63 -38 -67 -7 -4 -58 -16 -113 -27 -254
-52 -548 -62 -720 -24 -55 12 -111 30 -125 40 -26 20 -56 70 -46 79 3 3 32 -2
65 -11 157 -44 506 -42 687 4 42 11 87 20 98 21 12 0 64 13 116 28 52 15 96
25 97 22 2 -3 -8 -33 -21 -65z m459 -27 c-7 -15 -110 -96 -184 -142 -127 -81
-344 -173 -483 -204 -108 -25 -300 -23 -403 4 -109 29 -204 71 -185 83 8 5 22
4 34 -2 14 -7 97 -12 231 -12 220 0 289 9 495 65 164 45 372 135 455 197 42
32 49 34 40 11z m-389 -80 c19 -11 34 -26 34 -33 0 -14 -121 -55 -240 -81
-177 -39 -405 -55 -558 -39 -49 5 -59 10 -54 22 15 42 39 51 144 56 130 7 334
25 373 33 17 3 53 7 82 7 28 1 46 4 40 8 -13 8 -9 10 63 32 63 20 78 19 116
-5z m-886 -59 c0 -9 -26 -68 -35 -78 -1 -1 -10 0 -19 4 -26 10 -20 51 12 68
33 18 42 19 42 6z"/>
<path d="M2098 3523 c6 -2 18 -2 25 0 6 3 1 5 -13 5 -14 0 -19 -2 -12 -5z"/>
<path d="M2150 3520 c-13 -8 -12 -10 3 -10 9 0 17 5 17 10 0 12 -1 12 -20 0z"/>
<path d="M2100 3500 c8 -5 22 -9 30 -9 10 0 8 3 -5 9 -27 12 -43 12 -25 0z"/>
<path d="M2155 3490 c-3 -5 1 -10 9 -10 9 0 16 5 16 10 0 6 -4 10 -9 10 -6 0
-13 -4 -16 -10z"/>
<path d="M2143 3277 c4 -14 26 -16 30 -3 1 5 -6 10 -16 12 -10 1 -16 -3 -14
-9z"/>
<path d="M2659 3815 c-45 -24 -62 -97 -33 -140 35 -53 131 -37 153 26 17 49
13 68 -18 100 -32 32 -62 36 -102 14z"/>
<path d="M4475 3750 c3 -5 8 -10 11 -10 2 0 4 5 4 10 0 6 -5 10 -11 10 -5 0
-7 -4 -4 -10z"/>
<path d="M5081 3294 c0 -11 3 -14 6 -6 3 7 2 16 -1 19 -3 4 -6 -2 -5 -13z"/>
<path d="M4760 3113 c-26 -27 -15 -30 19 -7 22 16 22 16 10 -5 -15 -23 -63
-46 -77 -37 -5 3 -15 -1 -22 -9 -10 -12 -9 -15 4 -15 11 0 14 5 10 12 -4 6 -3
8 4 5 14 -9 4 -44 -15 -51 -8 -3 -11 -11 -8 -16 5 -8 12 -7 23 2 13 11 15 10
9 -4 -4 -10 -2 -18 4 -18 7 0 9 10 4 27 -5 22 -4 25 8 15 18 -15 30 -3 16 15
-9 10 -6 13 14 13 14 0 29 5 33 11 4 8 -1 9 -16 4 -22 -7 -22 -6 3 19 15 15
27 34 27 42 0 9 5 12 12 8 6 -4 8 -3 4 4 -10 17 -42 10 -66 -15z"/>
<path d="M4815 3040 c4 -6 11 -8 16 -5 14 9 11 15 -7 15 -8 0 -12 -5 -9 -10z"/>
<path d="M4786 3020 c-15 -5 -16 -9 -7 -14 7 -5 18 -3 24 3 14 14 6 20 -17 11z"/>
<path d="M4520 2860 c0 -5 5 -10 10 -10 6 0 10 5 10 10 0 6 -4 10 -10 10 -5 0
-10 -4 -10 -10z"/>
<path d="M4630 2943 c0 -15 2 -16 10 -3 7 11 10 11 10 2 0 -7 5 -10 10 -7 17
10 11 25 -10 25 -12 0 -20 -7 -20 -17z"/>
<path d="M4633 2905 c-10 -11 -9 -13 7 -12 11 1 20 7 20 14 0 17 -12 16 -27
-2z"/>
<path d="M3825 2268 c-23 -12 -115 -108 -115 -119 0 -4 12 -17 26 -28 31 -24
76 -27 93 -7 7 8 43 24 82 37 76 25 122 66 96 87 -50 39 -139 54 -182 30z"/>
<path d="M3325 1690 c-3 -5 -2 -10 4 -10 5 0 13 5 16 10 3 6 2 10 -4 10 -5 0
-13 -4 -16 -10z"/>
<path d="M2985 1580 c-3 -5 -1 -10 4 -10 6 0 11 5 11 10 0 6 -2 10 -4 10 -3 0
-8 -4 -11 -10z"/>
<path d="M2829 1457 c15 -19 41 -23 41 -7 0 6 -4 10 -9 10 -5 0 -18 3 -28 7
-16 6 -16 5 -4 -10z"/>
<path d="M2771 1419 c-13 -11 -22 -21 -20 -23 2 -3 15 4 28 15 13 11 22 21 20
23 -2 3 -15 -4 -28 -15z"/>
<path d="M2780 1390 c0 -5 5 -10 10 -10 6 0 10 5 10 10 0 6 -4 10 -10 10 -5 0
-10 -4 -10 -10z"/>
<path d="M2837 1264 c-26 -26 -35 -45 -19 -43 10 0 55 59 50 65 -3 2 -17 -8
-31 -22z"/>
<path d="M3062 1495 c-12 -14 -27 -25 -34 -25 -8 0 -7 -5 3 -15 18 -18 50 -10
42 11 -3 8 5 17 21 24 14 5 26 14 26 20 0 19 -36 10 -58 -15z"/>
<path d="M4155 1526 c-125 -40 -205 -140 -205 -257 0 -37 47 -125 83 -155 127
-107 323 -113 465 -13 85 59 114 126 92 210 -23 85 -93 148 -220 200 -79 32
-146 37 -215 15z m80 -83 c28 -30 41 -66 30 -82 -9 -15 -70 -14 -82 2 -15 18
-25 66 -18 88 9 27 40 23 70 -8z m166 -3 c28 -15 23 -54 -11 -93 -16 -19 -30
-38 -30 -42 0 -4 18 -5 39 -1 55 8 91 -7 91 -39 0 -26 -17 -37 -73 -50 -23 -4
-27 -10 -21 -23 8 -19 9 -61 1 -68 -8 -8 -50 17 -65 38 -18 24 -34 13 -26 -18
7 -28 -10 -54 -37 -54 -12 0 -21 10 -25 25 -11 44 3 71 46 88 38 15 60 45 60
82 0 15 -22 39 -47 53 -14 8 -12 15 15 55 27 38 41 51 60 56 2 1 12 -4 23 -9z
m-311 -31 c0 -15 -7 -19 -37 -19 l-38 1 28 24 c31 27 47 25 47 -6z m43 -58
c44 -17 33 -71 -14 -71 -55 0 -102 47 -77 77 12 15 40 13 91 -6z m171 -64 c9
-23 6 -30 -14 -44 -45 -32 -103 -10 -98 36 6 54 94 60 112 8z m-281 3 c3 -13
0 -20 -9 -20 -8 0 -14 9 -14 20 0 11 4 20 9 20 5 0 11 -9 14 -20z m132 -51 c8
-12 -63 -51 -87 -47 -29 4 -38 44 -11 51 28 7 93 5 98 -4z m49 -35 c23 -9 20
-30 -10 -70 -17 -22 -35 -34 -51 -34 -46 0 -43 63 4 92 32 20 35 20 57 12z"/>
<path d="M3583 1192 c-3 -8 -2 -17 3 -21 5 -3 17 -23 28 -43 10 -21 30 -41 45
-46 44 -15 164 -42 191 -42 23 0 103 -21 140 -36 31 -13 60 -13 60 1 0 11 -95
65 -114 65 -10 0 -95 38 -191 85 -99 48 -153 61 -162 37z"/>
<path d="M1879 1108 c-14 -13 -32 -27 -40 -33 -152 -100 -247 -184 -376 -333
-54 -62 -59 -85 -23 -97 49 -15 269 148 391 289 89 103 125 162 109 182 -17
20 -31 18 -61 -8z"/>
<path d="M1966 1017 c-14 -25 -42 -66 -61 -92 -37 -48 -38 -65 -4 -65 27 0 58
17 91 49 25 24 27 31 21 81 -3 30 -9 59 -13 63 -4 5 -19 -12 -34 -36z"/>
<path d="M1715 703 c-16 -9 -32 -19 -35 -22 -12 -16 -113 -82 -145 -95 -35
-15 -44 -29 -25 -41 20 -12 191 97 230 148 24 31 18 33 -25 10z"/>
<path d="M2470 1114 c-11 -12 -10 -18 4 -32 15 -15 18 -15 26 -2 5 8 9 20 9
25 0 6 -3 4 -6 -2 -2 -7 -9 -13 -14 -13 -14 0 -11 28 4 33 7 4 8 6 1 6 -6 1
-17 -6 -24 -15z"/>
<path d="M2520 960 c0 -5 7 -7 15 -4 8 4 15 8 15 10 0 2 -7 4 -15 4 -8 0 -15
-4 -15 -10z"/>
<path d="M2270 1030 c0 -5 5 -10 10 -10 6 0 10 -4 10 -10 0 -5 -5 -10 -11 -10
-20 0 -43 -30 -31 -42 8 -8 13 -7 18 6 4 10 17 22 31 27 21 8 22 11 11 29 -13
21 -38 27 -38 10z"/>
<path d="M3300 695 c0 -15 4 -24 10 -20 6 3 10 12 10 20 0 8 -4 17 -10 20 -6
4 -10 -5 -10 -20z"/>
<path d="M3353 645 c0 -8 4 -12 9 -9 5 3 6 10 3 15 -9 13 -12 11 -12 -6z"/>
<path d="M3292 641 c-11 -6 -10 -10 4 -15 20 -8 32 0 18 14 -5 5 -15 5 -22 1z"/>
<path d="M3220 631 c0 -4 11 -6 25 -3 14 2 25 6 25 8 0 2 -11 4 -25 4 -14 0
-25 -4 -25 -9z"/>
<path d="M3116 521 c-3 -5 1 -11 9 -14 9 -4 12 -1 8 9 -6 16 -10 17 -17 5z"/>
<path d="M6386 863 c-6 -14 -5 -15 5 -6 7 7 10 15 7 18 -3 3 -9 -2 -12 -12z"/>
<path d="M6859 4894 c5 -3 7 -18 4 -35 -2 -17 0 -29 7 -29 16 0 8 63 -8 66 -7
1 -8 0 -3 -2z"/>
<path d="M6810 4855 c-10 -12 -10 -15 3 -15 8 0 20 7 27 15 10 12 10 15 -3 15
-8 0 -20 -7 -27 -15z"/>
</g>
</svg>
